<?xml version="1.0" encoding="UTF-8" standalone="no"?>
<!-- Created with Inkscape (http://www.inkscape.org/) -->

<svg
   xmlns:dc="http://purl.org/dc/elements/1.1/"
   xmlns:cc="http://creativecommons.org/ns#"
   xmlns:rdf="http://www.w3.org/1999/02/22-rdf-syntax-ns#"
   xmlns:svg="http://www.w3.org/2000/svg"
   xmlns="http://www.w3.org/2000/svg"
   xmlns:sodipodi="http://sodipodi.sourceforge.net/DTD/sodipodi-0.dtd"
   xmlns:inkscape="http://www.inkscape.org/namespaces/inkscape"
   width="109.50333mm"
   height="60.080814mm"
   viewBox="0 0 388.00392 212.88477"
   id="svg4171"
   version="1.1"
   inkscape:version="0.91 r13725"
   sodipodi:docname="logo.svg">
  <defs
     id="defs4173" />
  <sodipodi:namedview
     id="base"
     pagecolor="#ffffff"
     bordercolor="#666666"
     borderopacity="1.0"
     inkscape:pageopacity="0.0"
     inkscape:pageshadow="2"
     inkscape:zoom="1"
     inkscape:cx="13.57085"
     inkscape:cy="-105.11888"
     inkscape:document-units="px"
     inkscape:current-layer="layer1"
     showgrid="false"
     fit-margin-top="0"
     fit-margin-left="0"
     fit-margin-right="0"
     fit-margin-bottom="0"
     inkscape:window-width="1920"
     inkscape:window-height="1061"
     inkscape:window-x="-4"
     inkscape:window-y="-4"
     inkscape:window-maximized="1" />
  <metadata
     id="metadata4176">
    <rdf:RDF>
      <cc:Work
         rdf:about="">
        <dc:format>image/svg+xml</dc:format>
        <dc:type
           rdf:resource="http://purl.org/dc/dcmitype/StillImage" />
        <dc:title />
        <dc:contributor>
          <cc:Agent>
            <dc:title>cloud image nad phone image from openclipart</dc:title>
          </cc:Agent>
        </dc:contributor>
      </cc:Work>
    </rdf:RDF>
  </metadata>
  <g
     inkscape:label="Layer 1"
     inkscape:groupmode="layer"
     id="layer1"
     transform="translate(-73.296007,-0.82111)">
    <path
       style="color:#000000;font-style:normal;font-variant:normal;font-weight:normal;font-stretch:normal;font-size:medium;line-height:normal;font-family:sans-serif;text-indent:0;text-align:start;text-decoration:none;text-decoration-line:none;text-decoration-style:solid;text-decoration-color:#000000;letter-spacing:normal;word-spacing:normal;text-transform:none;direction:ltr;block-progression:tb;writing-mode:lr-tb;baseline-shift:baseline;text-anchor:start;white-space:normal;clip-rule:nonzero;display:inline;overflow:visible;visibility:visible;opacity:1;isolation:auto;mix-blend-mode:normal;color-interpolation:sRGB;color-interpolation-filters:linearRGB;solid-color:#000000;solid-opacity:1;fill:#91aa9d;fill-opacity:1;fill-rule:nonzero;stroke:none;stroke-width:4;stroke-linecap:butt;stroke-linejoin:miter;stroke-miterlimit:4;stroke-dasharray:none;stroke-dashoffset:0;stroke-opacity:1;color-rendering:auto;image-rendering:auto;shape-rendering:auto;text-rendering:auto;enable-background:accumulate"
       d="m 289.69922,0 c -34.90036,0 -67.36451,19.801527 -85.32422,51.761719 -0.37224,-7.26e-4 -0.74469,-0.002 -1.12109,-0.002 -24.36854,0 -47.07957,12.589315 -61.23829,33.71875 -3.05434,-0.501465 -6.13047,-0.791016 -9.17187,-0.791016 -33.04148,0 -59.939453,28.763917 -59.939453,64.101557 0,35.33769 26.898163,64.09571 59.939453,64.09571 l 260.88477,0 c 37.03039,0 67.16916,-32.23282 67.17968,-71.83204 0,-39.59997 -30.13545,-71.826165 -67.16601,-71.826165 -3.51492,0 -7.03447,0.342202 -10.50391,0.921876 C 368.9826,28.080204 331.76802,0.00585938 289.69922,0.00585938 L 289.69922,0 Z m -5.80274,16.320312 c 1.89092,-0.05066 3.75277,0.979923 4.76172,2.851563 l 22.49805,41.736328 c 1.46747,2.722108 0.59241,6.225103 -1.94922,7.796875 l -11.82617,7.3125 c -2.54164,1.571679 -5.81174,0.632541 -7.2793,-2.089844 l -22.5,-41.736328 c -1.46774,-2.722709 -0.59271,-6.225103 1.94922,-7.796875 l 11.82617,-7.3125 c 0.79434,-0.491236 1.66003,-0.738692 2.51953,-0.761719 z m -20.24609,16.626954 c 4.57113,8.479613 19.29606,35.79187 23.86719,44.271484 l -0.002,0.002 c -23.52336,14.545137 12.36871,86.60804 38.10938,70.69141 4.57113,8.47962 19.29606,35.79429 23.86719,44.27344 -10.86032,6.71588 -20.05363,10.94904 -32.64453,3.24023 C 281.88784,174.02183 243.403,102.6642 244.5,60.099609 c 0.38028,-14.783355 8.51292,-20.574768 19.15039,-27.152343 z m 81.71289,97.394534 c 1.89091,-0.0506 3.75277,0.97816 4.76172,2.84961 l 22.49805,41.73828 c 1.46748,2.72239 0.59242,6.22556 -1.94922,7.79687 l -11.82617,7.31055 c -2.54163,1.57168 -5.81174,0.63477 -7.2793,-2.08789 l -22.5,-41.73828 c -1.46759,-2.72246 -0.59272,-6.22557 1.94922,-7.79688 l 11.82617,-7.3125 c 0.79434,-0.49115 1.66003,-0.73677 2.51953,-0.75976 z"
       transform="translate(0.39171,0.82111)"
       id="path7"
       inkscape:connector-curvature="0" />
  </g>
</svg>
